<svg width="24" height="24" viewBox="0 0 24 24" fill="none" xmlns="http://www.w3.org/2000/svg">
<mask id="mask0_565_63789" style="mask-type:alpha" maskUnits="userSpaceOnUse" x="0" y="0" width="24" height="24">
<rect width="24" height="24" fill="#D9D9D9"/>
</mask>
<g mask="url(#mask0_565_63789)">
<path d="M12 21.231L11.077 18.4623H4.61551C4.10784 18.4623 3.67317 18.2816 3.31151 17.9203C2.95001 17.5588 2.76926 17.1243 2.76926 16.6168V4.61928C2.76926 4.11178 2.95001 3.67661 3.31151 3.31378C3.67317 2.95095 4.10784 2.76953 4.61551 2.76953H10.1538L10.9615 5.53828H19.3845C19.923 5.53828 20.3653 5.71128 20.7115 6.05728C21.0577 6.40328 21.2308 6.84545 21.2308 7.38378V19.3813C21.2308 19.8888 21.0577 20.3239 20.7115 20.6868C20.3653 21.0496 19.923 21.231 19.3845 21.231H12ZM7.52926 14.3983C8.59309 14.3983 9.46542 14.056 10.1463 13.3715C10.8269 12.6869 11.1673 11.7984 11.1673 10.706C11.1673 10.5664 11.1647 10.4488 11.1595 10.3533C11.1545 10.2578 11.1366 10.1613 11.1058 10.0638H7.45001V11.4888H9.51151C9.38467 11.9234 9.14976 12.2603 8.80676 12.4993C8.46376 12.7384 8.04584 12.858 7.55301 12.858C6.95217 12.858 6.43609 12.6407 6.00476 12.206C5.57342 11.7714 5.35776 11.2413 5.35776 10.6158C5.35776 9.99011 5.57284 9.45995 6.00301 9.02528C6.43317 8.59061 6.94776 8.37328 7.54676 8.37328C7.82326 8.37328 8.08367 8.4227 8.32801 8.52153C8.57217 8.6202 8.79617 8.77145 9.00001 8.97528L10.1288 7.89653C9.80442 7.56186 9.41551 7.30095 8.96201 7.11378C8.50834 6.92661 8.02776 6.83303 7.52026 6.83303C6.49009 6.83303 5.60967 7.20003 4.87901 7.93403C4.14817 8.66803 3.78276 9.56195 3.78276 10.6158C3.78276 11.6696 4.14892 12.5634 4.88126 13.2973C5.61359 14.0313 6.49626 14.3983 7.52926 14.3983ZM13.7058 14.8598L14.2173 14.3733C14.0033 14.1093 13.8052 13.8551 13.623 13.6108C13.441 13.3666 13.2679 13.1074 13.1038 12.833L13.7058 14.8598ZM14.8595 13.681C15.2917 13.1742 15.6196 12.6904 15.8433 12.2298C16.0669 11.7691 16.2173 11.4067 16.2943 11.1425H12.627L12.902 12.1145H13.8185C13.9408 12.346 14.087 12.5959 14.257 12.8643C14.427 13.1328 14.6278 13.405 14.8595 13.681ZM12.923 20.308H19.3845C19.6615 20.308 19.8846 20.2195 20.0538 20.0425C20.2231 19.8657 20.3078 19.6465 20.3078 19.385V7.38853C20.3078 7.1117 20.2232 6.88803 20.054 6.71753C19.8848 6.54703 19.6618 6.46178 19.385 6.46178H11.2423L12.3253 10.204H14.1458V9.23403H15.0903V10.204H18.4615V11.1425H17.283C17.129 11.7247 16.8998 12.2933 16.5953 12.8483C16.2908 13.4034 15.9295 13.9201 15.5115 14.3983L18.025 16.8713L17.3578 17.5388L14.8595 15.0503L14.027 15.8983L14.7693 18.4618L12.923 20.308Z" fill="#957B0B"/>
</g>
</svg>
