<svg width="24" height="24" viewBox="0 0 24 24" fill="none" xmlns="http://www.w3.org/2000/svg">
<mask id="mask0_318_7456" style="mask-type:alpha" maskUnits="userSpaceOnUse" x="0" y="0" width="24" height="24">
<rect width="24" height="24" fill="#D9D9D9"/>
</mask>
<g mask="url(#mask0_318_7456)">
<path d="M9.40776 20.921L8.88476 19.8845C8.74109 19.6205 8.63917 19.3481 8.57901 19.0673C8.51867 18.7866 8.48851 18.4975 8.48851 18.2C8.48851 17.8358 8.53951 17.4775 8.64151 17.125C8.74334 16.7725 8.90451 16.4424 9.12501 16.1348C9.26484 15.9321 9.37284 15.7138 9.44901 15.4798C9.52534 15.2458 9.56351 15.0025 9.56351 14.75C9.56351 14.4705 9.51192 14.2045 9.40876 13.952C9.30559 13.6993 9.19759 13.4468 9.08476 13.1943C8.93092 12.8904 8.80142 12.5814 8.69626 12.2673C8.59109 11.9533 8.53851 11.6308 8.53851 11.3V7.88477C8.53851 7.41027 8.38309 6.99993 8.07226 6.65377C7.76126 6.30777 7.37501 6.13477 6.91351 6.13477C6.52501 6.13477 6.18142 6.25302 5.88276 6.48952C5.58409 6.72602 5.39942 7.02377 5.32876 7.38277C5.88909 7.5546 6.35259 7.88018 6.71926 8.35952C7.08592 8.83902 7.26926 9.38585 7.26926 10C7.26926 10.7628 7.00159 11.4118 6.46626 11.947C5.93109 12.4823 5.28209 12.75 4.51926 12.75C3.75642 12.75 3.10742 12.4823 2.57226 11.947C2.03692 11.4118 1.76926 10.7628 1.76926 10C1.76926 9.35902 1.96417 8.7946 2.35401 8.30677C2.74367 7.81893 3.23534 7.50068 3.82901 7.35202C3.90584 6.57385 4.23976 5.92643 4.83076 5.40977C5.42176 4.8931 6.11601 4.63477 6.91351 4.63477C7.00451 4.63477 7.09392 4.63893 7.18176 4.64727C7.26959 4.6556 7.35901 4.67002 7.45001 4.69052C8.13851 4.30718 8.86767 4.03535 9.63751 3.87502C10.4073 3.71485 11.1948 3.63477 12 3.63477C12.8013 3.63477 13.5869 3.71485 14.3568 3.87502C15.1266 4.03535 15.8558 4.30718 16.5443 4.69052C16.6289 4.67002 16.7168 4.6556 16.8078 4.64727C16.8988 4.63893 16.9865 4.63477 17.071 4.63477C17.8788 4.63477 18.5783 4.8931 19.1693 5.40977C19.7603 5.92643 20.0942 6.57385 20.171 7.35202C20.7647 7.50718 21.2548 7.82702 21.6413 8.31152C22.0278 8.79618 22.221 9.35902 22.221 10C22.221 10.7628 21.9534 11.4118 21.4183 11.947C20.8829 12.4823 20.2338 12.75 19.471 12.75C18.7083 12.75 18.0593 12.4823 17.524 11.947C16.9888 11.4118 16.7213 10.7628 16.7213 10C16.7213 9.38585 16.9046 8.83743 17.2713 8.35477C17.6379 7.8721 18.1046 7.5481 18.6713 7.38277C18.5943 7.02377 18.408 6.72602 18.1125 6.48952C17.817 6.25302 17.4698 6.13477 17.071 6.13477C16.6095 6.13477 16.2259 6.30777 15.9203 6.65377C15.6144 6.99993 15.4615 7.41027 15.4615 7.88477V11.3C15.4615 11.6308 15.4063 11.9533 15.296 12.2673C15.1858 12.5814 15.0589 12.8904 14.9153 13.1943C14.7923 13.4468 14.6817 13.6993 14.5835 13.952C14.4855 14.2045 14.4365 14.4705 14.4365 14.75C14.4365 15.0025 14.473 15.2473 14.546 15.4845C14.6192 15.7218 14.732 15.9418 14.8845 16.1443C15.0883 16.4584 15.2438 16.7885 15.351 17.1345C15.458 17.4807 15.5115 17.8358 15.5115 18.2C15.5115 18.4975 15.4772 18.7866 15.4085 19.0673C15.34 19.3481 15.2423 19.6205 15.1153 19.8845L14.5923 20.9308L13.2348 20.252L13.7578 19.2155C13.8474 19.0628 13.9122 18.9019 13.952 18.7328C13.9917 18.5634 14.0115 18.3858 14.0115 18.2C14.0115 17.9743 13.975 17.7587 13.902 17.553C13.8288 17.3472 13.7358 17.1481 13.623 16.9558C13.3962 16.6416 13.225 16.2973 13.1095 15.923C12.9942 15.5487 12.9365 15.166 12.9365 14.775C12.9365 14.4108 12.9907 14.066 13.099 13.7405C13.2073 13.4148 13.3436 13.0949 13.5078 12.7808C13.6206 12.5346 13.7244 12.2894 13.8193 12.0453C13.9141 11.8009 13.9615 11.5525 13.9615 11.3V7.88477C13.9615 7.43343 14.0464 7.00935 14.2163 6.61252C14.3863 6.21568 14.6232 5.8801 14.927 5.60576C14.4615 5.43393 13.9836 5.31243 13.4933 5.24127C13.0029 5.17027 12.5052 5.13477 12 5.13477C11.4948 5.13477 10.9955 5.17027 10.502 5.24127C10.0083 5.31243 9.53201 5.43393 9.07301 5.60576C9.37684 5.8801 9.61376 6.21568 9.78376 6.61252C9.95359 7.00935 10.0385 7.43343 10.0385 7.88477V11.3C10.0385 11.559 10.0833 11.8132 10.173 12.0625C10.2628 12.3118 10.3693 12.5545 10.4923 12.7905C10.6461 13.1045 10.7798 13.4243 10.8933 13.75C11.0068 14.0757 11.0635 14.4173 11.0635 14.775C11.0635 15.166 11.0058 15.5462 10.8905 15.9155C10.775 16.2847 10.607 16.6314 10.3865 16.9558C10.257 17.1481 10.1583 17.3472 10.0905 17.553C10.0225 17.7587 9.98851 17.9743 9.98851 18.2C9.98851 18.3858 10.01 18.5634 10.053 18.7328C10.0958 18.9019 10.1589 19.0628 10.2423 19.2155L10.7558 20.252L9.40776 20.921ZM4.51926 11.25C4.86676 11.25 5.16192 11.1285 5.40476 10.8855C5.64776 10.6427 5.76926 10.3475 5.76926 10C5.76926 9.65252 5.64776 9.35735 5.40476 9.11452C5.16192 8.87152 4.86676 8.75002 4.51926 8.75002C4.17176 8.75002 3.87659 8.87152 3.63376 9.11452C3.39076 9.35735 3.26926 9.65252 3.26926 10C3.26926 10.3475 3.39076 10.6427 3.63376 10.8855C3.87659 11.1285 4.17176 11.25 4.51926 11.25ZM19.471 11.25C19.8185 11.25 20.1138 11.1285 20.3568 10.8855C20.5998 10.6427 20.7213 10.3475 20.7213 10C20.7213 9.65252 20.5998 9.35735 20.3568 9.11452C20.1138 8.87152 19.8185 8.75002 19.471 8.75002C19.1237 8.75002 18.8285 8.87152 18.5855 9.11452C18.3425 9.35735 18.221 9.65252 18.221 10C18.221 10.3475 18.3425 10.6427 18.5855 10.8855C18.8285 11.1285 19.1237 11.25 19.471 11.25Z" fill="#4091C6"/>
</g>
</svg>
