<svg width="24" height="24" viewBox="0 0 24 24" fill="none" xmlns="http://www.w3.org/2000/svg">
<mask id="mask0_318_7425" style="mask-type:alpha" maskUnits="userSpaceOnUse" x="0" y="0" width="24" height="24">
<rect width="24" height="24" fill="#D9D9D9"/>
</mask>
<g mask="url(#mask0_318_7425)">
<path d="M13 22.5C11.9243 22.5 11.0721 22.0413 10.4433 21.124C9.81442 20.2067 9.5 19.1653 9.5 18C9.5 16.8347 9.81442 15.7933 10.4433 14.876C11.0721 13.9587 11.9243 13.5 13 13.5C14.0757 13.5 14.9279 13.9587 15.5568 14.876C16.1856 15.7933 16.5 16.8347 16.5 18C16.5 19.1653 16.1856 20.2067 15.5568 21.124C14.9279 22.0413 14.0757 22.5 13 22.5ZM4.527 21.9923L3.10775 21.5365C3.59875 19.989 3.95192 18.4172 4.16725 16.8212C4.38275 15.2251 4.4905 13.618 4.4905 12C4.4905 10.382 4.38275 8.77492 4.16725 7.17875C3.95192 5.58275 3.59875 4.011 3.10775 2.4635L4.527 2.00775C5.04483 3.62958 5.41817 5.27317 5.647 6.9385C5.876 8.60383 5.9905 10.291 5.9905 12C5.9905 13.709 5.876 15.3962 5.647 17.0615C5.41817 18.7268 5.04483 20.3704 4.527 21.9923ZM19.4635 21.9923C18.9455 20.3704 18.5721 18.7268 18.3432 17.0615C18.1144 15.3962 18 13.709 18 12C18 10.291 18.1144 8.60383 18.3432 6.9385C18.5721 5.27317 18.9455 3.62958 19.4635 2.00775L20.8827 2.4635C20.3916 4.011 20.0383 5.58275 19.823 7.17875C19.6077 8.77492 19.5 10.382 19.5 12C19.5 13.618 19.6077 15.2251 19.823 16.8212C20.0383 18.4172 20.3916 19.989 20.8827 21.5365L19.4635 21.9923ZM13 21C13.6667 21 14.1667 20.6875 14.5 20.0625C14.8333 19.4375 15 18.75 15 18C15 17.25 14.8333 16.5625 14.5 15.9375C14.1667 15.3125 13.6667 15 13 15C12.3333 15 11.8333 15.3125 11.5 15.9375C11.1667 16.5625 11 17.25 11 18C11 18.75 11.1667 19.4375 11.5 20.0625C11.8333 20.6875 12.3333 21 13 21ZM12.3308 19.6845C12.4488 19.7923 12.5869 19.8446 12.7452 19.8413C12.9036 19.8381 13.0449 19.7775 13.1693 19.6595C13.3898 19.4455 13.5577 19.1939 13.673 18.9048C13.7885 18.6158 13.8462 18.3142 13.8462 18C13.8462 17.6858 13.7895 17.3858 13.676 17.1C13.5625 16.8142 13.3987 16.561 13.1845 16.3405C13.0768 16.2225 12.9429 16.1619 12.7828 16.1587C12.6224 16.1554 12.4801 16.2077 12.3558 16.3155C12.2314 16.4232 12.1667 16.5613 12.1615 16.7298C12.1563 16.8984 12.2077 17.0449 12.3155 17.1693C12.3667 17.2206 12.4358 17.3235 12.523 17.478C12.6102 17.6323 12.6538 17.8063 12.6538 18C12.6538 18.1937 12.6102 18.3677 12.523 18.522C12.4358 18.6765 12.3667 18.7794 12.3155 18.8307C12.191 18.9551 12.1313 19.1016 12.1365 19.2703C12.1417 19.4388 12.2064 19.5768 12.3308 19.6845ZM11 10.5C9.92433 10.5 9.07208 10.0413 8.44325 9.124C7.81442 8.20667 7.5 7.16533 7.5 6C7.5 4.83467 7.81442 3.79333 8.44325 2.876C9.07208 1.95867 9.92433 1.5 11 1.5C12.0757 1.5 12.9279 1.95867 13.5568 2.876C14.1856 3.79333 14.5 4.83467 14.5 6C14.5 7.16533 14.1856 8.20667 13.5568 9.124C12.9279 10.0413 12.0757 10.5 11 10.5ZM11 9C11.6667 9 12.1667 8.6875 12.5 8.0625C12.8333 7.4375 13 6.75 13 6C13 5.25 12.8333 4.5625 12.5 3.9375C12.1667 3.3125 11.6667 3 11 3C10.3333 3 9.83333 3.3125 9.5 3.9375C9.16667 4.5625 9 5.25 9 6C9 6.75 9.16667 7.4375 9.5 8.0625C9.83333 8.6875 10.3333 9 11 9ZM11.6442 7.6845C11.7686 7.57683 11.8333 7.43875 11.8385 7.27025C11.8437 7.10158 11.7923 6.95508 11.6845 6.83075C11.582 6.71792 11.5 6.58942 11.4385 6.44525C11.377 6.30092 11.3463 6.1525 11.3463 6C11.3463 5.8475 11.377 5.69908 11.4385 5.55475C11.5 5.41058 11.582 5.28208 11.6845 5.16925C11.7987 5.04492 11.8558 4.90258 11.8558 4.74225C11.8558 4.58208 11.7936 4.43983 11.6692 4.3155C11.5512 4.20767 11.4115 4.15375 11.25 4.15375C11.0885 4.15375 10.9488 4.21275 10.8308 4.33075C10.6103 4.55125 10.4423 4.80608 10.327 5.09525C10.2115 5.38425 10.1537 5.68583 10.1537 6C10.1537 6.31417 10.2089 6.61417 10.3192 6.9C10.4296 7.18583 10.595 7.439 10.8155 7.6595C10.9333 7.7775 11.0714 7.83808 11.2298 7.84125C11.3881 7.84458 11.5262 7.79233 11.6442 7.6845Z" fill="#4091C6"/>
</g>
</svg>
